<svg xmlns="http://www.w3.org/2000/svg" xmlns:xlink="http://www.w3.org/1999/xlink" width="880px" height="500px" viewBox="-0.217391 -5.55111e-14 880.435 500" preserveAspectRatio="xMidYMid meet" ><rect id="svgEditorBackground" x="0" y="0" width="880" height="500" style="fill: none; stroke: none;"/><rect x="0" y="0" style="fill:khaki;stroke:black;stroke-width:1px;" id="e1_rectangle" width="500px" height="500px"/><path d="M239.011999928,470.38400116" style="fill:none;stroke:black;" stroke-width="1.0760000055486505" id="e2_path"/><path d="M254.456,473.156" style="fill:none;stroke:black;" stroke-width="2.152000011097301" id="e3_path"/><path d="M252.304,460.244" style="fill:none;stroke:black;" stroke-width="2.152000011097301" id="e4_path"/><path d="M-442.792,421.508" style="fill:none;stroke:black;" stroke-width="2.152000011097301" id="e5_path"/><path d="M-466.464,494.676" style="fill:none;stroke:black;" stroke-width="2.152000011097301" id="e7_path"/><path d="M245.848,477.46" style="fill:none;stroke:black;" stroke-width="2.152000011097301" id="e8_path"/><path d="M254.456,471.542" style="fill:none;stroke:black;" stroke-width="2.152000011097301" id="e10_path"/><path d="M256.608,471.542l1.6249565134161799,-105.94765217391296q0.2826956799171967,-24.995086930165826,-12.89830432147005,-47.088695688240136q-10.227478255320932,-15.898391272443234,-24.223695614720413,-24.778130425072504q-13.729956553643945,-8.06999998612838,-28.514000024968993,-9.958478276128403q-11.83326092089024,-1.8912173302691713,-22.606956521739136,1.6085217613250506q-15.042434838095232,4.255043514327099,-25.54695654670806,15.384521747453448q-10.81700001525877,12.447434786770089,-14.536782622567245,25.767000018033002q-3.230739123499049,13.72721736910978,-1.344999995838549,23.606956532836477q1.0570000041614662,7.961478246997956,5.385478241449221,14.879478255320805q4.575739119337527,7.456000022194701,15.276173932463792,13.884956524513598q11.681086930165662,6.33352174051754,25.378086962070398,5.28747826364372q14.045000020807464,-1.5270434976809497,22.555260873726724,-9.17860869842633q8.624434796480358,-8.618956538385135,9.434173918592137,-20.75134784689442q0.2635217321945902,-10.224739104078651,-3.5079565120290113,-16.95247826780536q-4.035000020807445,-8.067260868178096,-11.841478274741206,-11.56700001525877q-8.059043492132503,-2.6872608515321303,-15.593782615631483,-0.2689999902899558q-5.926217395465812,2.157478269192609,-9.692217381594162,8.075478266418315q-3.7660000083230045,9.146000013871628,1.07600000554865,13.450000024968858" style="fill:none;stroke:black;stroke-width:2px;stroke-linecap:round;stroke-linejoin:round;" id="e1_path"/><path d="M255,345" style="fill:none;stroke:black;" stroke-width="1" id="e12_path"/><path d="M253,338" style="fill:none;stroke:black;" stroke-width="1" id="e13_path"/><path d="M253.0319237061,343.136" style="fill:none;stroke:black;" stroke-width="1.0319999999999998" id="e14_path"/><path d="M253.3036191304348,335.3685217391305q6.95226086956518,-30.416521739130474,18.820260869565118,-47.9605217391304q11.35200000000009,-15.480000000000075,25.800000000000068,-23.478000000000065q14.964000000000055,-7.9979999999999905,30.701999999999998,-9.804000000000059q16.25400000000002,-2.063999999999936,29.154000000000053,1.032000000000039q11.093999999999824,2.8380000000001075,19.865999999999815,8.77200000000002q8.256000000000256,5.4179999999999495,13.674000000000035,13.157999999999902q6.4500000000000455,8.256000000000085,9.288000000000181,18.834000000000117q2.8380000000000223,10.319999999999936,1.80600000000004,21.92999999999995q-0.7739999999998872,12.384000000000071,-4.1127391304349885,24.184826086956605q-4.181434782608562,11.88326086956522,-12.912217391304239,19.02634782608692q-9.301739130434953,7.972043478260787,-23.181826086956505,9.017782608695654q-14.571652173913037,1.0319999999999823,-26.602999999999952,-5.691260869565383q-12.602304347826248,-8.204086956521508,-17.028000000000134,-19.788130434782317q-4.303565217391167,-12.698478260869592,-2.0487391304347398,-23.615391304347895q2.3906956521739744,-9.559739130434878,10.730652173913143,-16.417347826087052q8.733826086956412,-6.885086956521775,18.83856521739102,-7.277434782608736q12.373304347826377,-0.6640869565217145,20.018652173913324,7.147652173913173q8.18882608695634,8.884956521739014,5.129478260869348,21.192608695652154q-3.6028260869564406,10.255869565217154,-14.269347826086744,10.687913043478204q-9.416217391304372,-0.6411739130434171,-11.413043478260875,-10.4802608695652" style="fill:none;stroke:black;stroke-width:2px;stroke-linecap:round;stroke-linejoin:round;" id="e2_path"/><path d="M276.296,281.226q3.1440000000000055,-18.864000000000033,2.6200000000000045,-30.653999999999996q-0.5240000000000009,-14.147999999999968,-7.074000000000012,-23.58000000000004q-6.025999999999954,-9.169999999999959,-15.981999999999971,-14.147999999999968q-9.694000000000017,-4.716000000000037,-20.698000000000064,-4.97799999999998q-7.859999999999957,-0.2620000000000573,-16.767999999999915,2.8819999999999766q-7.074000000000012,2.619999999999976,-12.83800000000005,8.122000000000043q-5.763999999999982,6.025999999999954,-8.383999999999986,13.099999999999966q-2.881999999999948,7.860000000000014,-2.0960000000000036,15.458000000000055q0.5240000000000009,6.2879999999999825,2.8819999999999766,11.527999999999963q2.3580000000000325,6.812000000000012,8.908000000000186,12.313999999999965q5.501999999999867,4.454000000000008,12.575999999999851,6.0260000000000105q5.501999999999981,1.3100000000000023,13.100000000000023,-0.26200000000000045q6.025999999999982,-1.0480000000000018,11.789999999999935,-6.0260000000000105q4.454000000000036,-4.192000000000007,6.2879999999999825,-10.479999999999905q1.3099999999999454,-4.716000000000008,2.842170943040401e-14,-10.218000000000103q-1.5719999999999175,-5.5020000000000095,-4.97799999999998,-8.907999999999959q-3.4059999999999775,-3.6680000000000064,-8.383999999999986,-5.240000000000066q-4.9780000000000655,-1.3099999999998886,-9.693999999999988,0.5240000000000578q-3.9300000000000352,2.358000000000004,-5.76400000000001,6.025999999999982q-1.3100000000000023,4.192000000000007,0,7.074000000000012q1.5720000000000312,3.1440000000000055,3.667999999999978,5.240000000000009" style="fill:none;stroke:black;stroke-width:2px;stroke-linecap:round;stroke-linejoin:round;" id="e3_path"/><path d="M293.729984741,265.948q9.589999999999975,-22.46799999999999,12.192999999999984,-36.03099999999998q2.8770000000000095,-13.014999999999986,-1.233000000000004,-22.057000000000016q-3.9729999999998995,-7.9459999999999695,-8.21999999999997,-15.617999999999967q-3.8360000000000127,-6.576000000000022,-5.8910000000000196,-15.343999999999994q-1.233000000000004,-11.234000000000037,1.781000000000006,-18.358000000000033q3.562000000000012,-8.219999999999999,11.165500000000009,-12.672499999999985q5.959499999999991,-3.4935000000000116,12.53550000000007,-4.3840000000000146q6.9869999999999095,-0.7534999999999741,13.562999999999931,1.507000000000005q6.4389999999999645,2.397500000000008,10.95999999999998,7.055499999999995q5.206000000000017,5.480000000000018,7.124000000000024,10.823000000000036q2.328999999999951,5.890999999999991,1.7810000000000628,11.781999999999982q-0.6850000000000591,5.069000000000017,-3.699000000000069,9.179000000000002q-3.6990000000000123,4.246999999999986,-7.946000000000026,5.342999999999961q-5.616999999999905,1.507000000000005,-10.822999999999979,2.842170943040401e-14q-5.617000000000019,-2.191999999999979,-8.220000000000027,-7.8089999999999975q-2.3290000000000077,-6.1650000000000205,-0.6850000000000023,-11.097000000000008q1.781000000000006,-4.110000000000014,5.754000000000019,-5.205999999999989q4.6580000000000155,-0.9590000000000032,7.398000000000025,0.41100000000000136q2.7399999999999523,1.0960000000000036,4.246999999999957,3.9729999999999848q0.8220000000000027,2.466000000000008,0,4.931999999999988" style="fill:none;stroke:black;stroke-width:2px;stroke-linecap:round;stroke-linejoin:round;" id="e17_path"/><path d="M369.25,258.75q14.875,-5.5,24.374999999999943,-10.75q8.125,-4.25,12.750000000000114,-10.999999999999972q5.1249999999998295,-7.625000000000028,6.999999999999886,-17.12500000000003q1.2499999999998863,-9.875,-2.75,-16.87500000000003q-4.000000000000057,-6.75,-10.62499999999983,-10.124999999999943q-5.625000000000114,-3.0000000000000284,-12.750000000000114,-2.6250000000000284q-6.5,0.375,-11.25,3.75q-4.75,3.5,-6.125,8.75q-1.375,4.25,-0.25,10.250000000000028q1.375,4.999999999999972,6.75,8.124999999999972q5.625,2.875,11.5,0.7499999999999716q5,-1.75,6.624999999999943,-6.124999999999972q1.2500000000000568,-4.625,-1.6249999999998863,-8.124999999999972q-2.375,-2.250000000000057,-5.875000000000057,-1.6250000000000284" style="fill:none;stroke:black;stroke-width:2px;stroke-linecap:round;stroke-linejoin:round;" id="e5_path"/><path d="M256.875,459.24999999999994q16.125,-7.374999999999886,23.75,-20.75q5.125,-8.749999999999943,8.625,-20.624999999999943q2.625,-6.5,7,-8.874999999999943q5.25,-3.625000000000057,13.875,-3.125000000000057q6.125,0.625,10.25,4q4.75,3.5,6.75,8.75q1.75,3.875,1.25,9.500000000000057q-0.375,4.875000000000114,-2.875,8.25q-2,2.999999999999943,-5.75,4.749999999999943q-4.5,2.5,-10.625,1.125q-4.625,-1.625,-6.875,-5.750000000000057q-1.875,-4.124999999999943,-0.75,-7.999999999999886q0.875,-2.5,2.875,-4.250000000000114q1.625,-1.2499999999999432,4.5,-1.7499999999998295q3.125,-0.2500000000001137,5,1.3749999999998863q1.5,1.5000000000000568,1.625,3.124999999999943" style="fill:none;stroke:black;stroke-width:2px;stroke-linecap:round;stroke-linejoin:round;" id="e19_path"/><path d="M252.56785915230432,210.73369565226085q-3.80434782586957,-24.04891304369565,-14.402173913695606,-36.54891304356522q-9.37499999913041,-12.771739130347783,-23.91304347778265,-17.391304347739123q-11.141304347869465,-4.076086956826089,-21.73913043473911,-2.4456521744347697q-8.2880434786087,1.9021739130435265,-16.30434782626085,6.25000000078262q-11.413043477913078,5.978260869608647,-22.14673912986956,2.581521738391274q-9.510869566086996,-3.260869564739096,-17.52717391321741,-8.831521738695642q-7.3369565218260675,-5.706521739217351,-11.413043478347817,-12.500000000130399q-3.8043478266086908,-5.706521738913068,-4.755434782391291,-12.907608695782642q-1.630434783391351,-9.103260869434806,-0.2717391304347814,-17.798913043652163q0.8152173910434612,-8.288043477565196,4.483695651956509,-15.217391303739149q4.34782608647825,-7.88043478269563,12.228260869173909,-14.402173913434765q5.706521738913011,-4.619565217695651,13.315217391695654,-7.336956521565213q6.7934782606521935,-2.3097826084782582,13.85869565156517,-2.853260869347835q6.521739130956604,-0.6793478263478221,13.043478261478299,0.40760869591305493q8.831521738695642,1.7663043473478268,15.760869564869495,7.472826086782604q6.521739131000004,5.4347826087826405,9.510869565304375,14.538043477652181q1.4945652176521378,5.706521738956511,0.8152173915652838,11.684782608565214q-1.0869565220000084,5.706521739434791,-4.211956521521728,9.646739131000032q-3.3967391304782666,4.891304347391284,-9.103260870173926,7.3369565213042875q-5.4347826089999955,2.3097826094782903,-10.8695652172174,2.3097826092174074q-5.434782608521772,0.13586956547825935,-10.326086956347893,-2.309782609217379q-4.6195652172173425,-2.4456521731739116,-7.065217391130432,-7.201086956086925q-2.717391304391242,-5.298913043478308,-1.4945652174347117,-11.413043478608756q1.6304347818695533,-5.4347826087390985,5.842391303652079,-8.559782608782626q3.6684782609131332,-2.4456521734347376,7.608695652739186,-1.7663043478260505q3.532608695956526,0.6793478268260742,5.570652174217372,3.125000000782606q3.124999999043581,3.1250000000000426,2.581521738173933,8.016304346869575" style="fill:none;stroke:black;stroke-width:2px;stroke-linecap:round;stroke-linejoin:round;" id="e6_path"/><path d="M146.11402390249398,160.05434782608694q-13.451086956521777,7.608695652173964,-24.592391304347842,7.744565217391312q-10.054347826086953,0.1358695652174049,-17.391304347826093,-4.483695652173907q-8.423913043478237,-4.34782608695653,-13.043478260869549,-12.5q-4.076086956521721,-6.793478260869563,-5.163043478260903,-15.217391304347814q-0.5434782608695343,-7.744565217391326,-5.1630434782608745,-14.402173913043498q-3.260869565217348,-4.891304347826079,-8.152173913043441,-8.01630434782605q-4.6195652173912976,-3.26086956521749,-10.05434782608696,-4.891304347826122q-7.201086956521728,-1.6304347826086882,-12.635869565217398,-0.271739130434824q-5.163043478260867,1.2228260869565588,-8.831521739130437,3.6684782608696196q-4.076086956521735,3.2608695652173765,-6.521739130434781,7.3369565217391255q-1.3586956521739069,2.3097826086956417,-2.1739130434782368,5.706521739130437q-0.8152173913043725,3.8043478260869676,-0.5434782608695627,7.608695652173907q0.13586956521739424,4.891304347826093,2.0380434782608603,8.967391304347785q2.0380434782608603,4.61956521739134,5.842391304347821,7.065217391304401q4.211956521739118,2.581521739130409,9.239130434782616,2.853260869565247q6.3858695652173765,0.4076086956522147,10.733695652173893,-1.3586956521739921q4.21195652173914,-2.1739130434782226,6.521739130434796,-5.570652173912947q2.309782608695656,-3.6684782608696196,1.9021739130434838,-8.016304347826207q-0.40760869565218627,-4.755434782608603,-3.6684782608695627,-7.7445652173912265q-3.260869565217405,-2.9891304347826093,-7.608695652173935,-3.260869565217405q-4.076086956521721,0.2717391304347956,-7.065217391304337,2.5815217391304515q-1.9021739130434838,1.9021739130434554,-2.3097826086956488,5.163043478260832" style="fill:none;stroke:black;stroke-width:2px;stroke-linecap:round;stroke-linejoin:round;" id="e11_path"/><path d="M141.086883536,301.086956522" style="fill:none;stroke:black;" stroke-width="1.0869565217391304" id="e15_path"/><path d="M136.739057449,307.608695652" style="fill:none;stroke:black;" stroke-width="1.0869565217391304" id="e16_path"/><path d="M155.89665155647825,291.30434782652173q-28.668478260869563,7.20108695591307,-46.33152173956526,20.788043477956478q-16.98369565160864,13.043478261173902,-38.5869565215217,9.103260869347935q-16.983695652130415,-2.85326086908708,-27.7173913043478,-14.402173912652188q-10.19021739147827,-10.597826087087014,-11.141304347956549,-25.54347826086962q2.1740476086051785e-10,-13.315217391130432,3.5326086956956715,-20.652173913739148q4.619565217652173,-11.956521738478187,13.722826087565203,-19.157608695086964q9.103260868652193,-7.744565217478225,21.874999999956536,-8.831521739695631q10.869565217000002,-0.5434782601303993,20.380434782304363,4.347826087260785q8.01630434765218,4.076086957043572,12.771739130565237,10.054347826173995q4.619565217434726,5.434782608478258,6.521739130478224,11.548913043086941q1.6304347823912764,7.065217391826195,-0.815217392043408,13.315217391391343q-2.3097826082174606,6.385869565521716,-7.336956520826192,10.19021739165214q-6.521739130999947,5.163043478043619,-14.130434782956485,5.027173912826129q-9.239130434652182,-0.8152173913043725,-14.266304347695637,-7.065217391608542q-4.347826087521767,-5.570652173174096,-2.0380434785652284,-11.684782607782779q2.1739130437391196,-6.114130435086906,8.423913043565221,-7.608695652999984q5.163043478043491,-1.3586956516956548,9.782608695217377,4.211956521739182" style="fill:none;stroke:black;stroke-width:2px;stroke-linecap:round;stroke-linejoin:round;" id="e18_path"/><path d="M59.56517985139203,317.9347826086957q-15.896744049761608,3.5326086956521863,-23.505439701935543,11.141304347826178q-6.657608695652147,6.38586956521732,-9.646739130434774,17.119565217391255q-2.4456521739130217,9.782608695652073,-0.5434782608695912,17.934782608695684q2.1739130434782865,7.336956521739012,7.336956521739175,13.043478260869506q4.619565217391269,5.434782608695514,13.31521739130433,8.423913043478308q9.51086956521749,2.7173913043478706,18.206521739130423,0.8152173913043725q10.054347826086982,-2.445652173913004,15.625000000000043,-8.016304347826292q5.842391304347842,-5.706521739130324,6.657608695652215,-14.130434782608575q0.4076086956521294,-8.831521739130494,-3.532608695652243,-14.266304347826178q-2.989130434782595,-4.0760869565215785,-7.0652173913043725,-5.842391304347814q-4.21195652173914,-1.9021739130434412,-8.967391304347785,-1.494565217391198q-5.434782608695684,0.2717391304346961,-8.967391304347863,3.668478260869506q-3.6684782608695343,3.464673913043555,-4.008152173913025,7.948369565217433q-0.06793478260867403,3.6005434782608177,1.086956521739161,6.1141304347826235q1.6983695652173907,2.9891304347825667,4.959239130434746,3.8722826086956843q3.6684782608696054,0.8831521739130608,6.725543478260889,-0.9510869565218059q2.6494565217391255,-1.9021739130434412,2.377717391304344,-5.706521739130437" style="fill:none;stroke:black;stroke-width:2px;stroke-linecap:round;stroke-linejoin:round;" id="e20_path"/><path d="M297.9482965790434,150.13586956495652q1.8342391309565755,-16.44021739095652,15.964673912956584,-30.8423913043913q8.559782609521733,-8.016304347173914,17.79891304413036,-12.907608695521716q7.608695651521884,-4.347826086521792,9.918478260478253,-11.141304347956577q2.309782609217507,-8.423913043565193,-0.4076086956520726,-15.489130434173887q-2.4456521734347234,-7.336956522304348,-9.103260869912958,-12.364130435391289q-6.385869565043549,-4.755434782173914,-14.945652173043584,-4.619565216956531q-6.657608696478235,0.13586956473913858,-11.956521739739117,5.163043478565214q-4.75543478217395,4.891304347391312,-5.706521738695642,10.326086955869556q-0.9510869563044935,5.434782609260864,1.3586956524347897,10.733695652521732q3.5326086951739057,7.6086956524782465,12.49999999982606,7.472826086739104q8.423913042782601,-0.9510869564781927,11.277173913173897,-7.336956521260831q2.038043478000077,-5.842391304652139,-2.5815217393912917,-9.918478261217388q-4.755434783130511,-3.125000000043485,-8.69565217373912,0.40760869513042053" style="fill:none;stroke:black;stroke-width:2px;stroke-linecap:round;stroke-linejoin:round;" id="e21_path"/><path d="M166.63038135805857,164.1304347826087q-13.043478260869563,6.79347826086962,-20.92391304347825,15.896739130434838q-8.42391304347828,8.559782608695542,-12.228260869565275,19.429347826086882q-4.3478260869564735,12.228260869565275,-0.8152173913043441,22.961956521739125q2.3097826086957127,8.423913043478336,9.510869565217433,13.858695652173992q6.521739130434781,4.619565217391312,14.673913043478251,5.570652173913004q8.69565217391306,1.0869565217390686,15.760869565217376,-2.173913043478251q7.336956521739182,-3.396739130434753,10.597826086956502,-9.782608695652186q3.532608695652243,-7.472826086956559,1.630434782608745,-15.353260869565247q-2.0380434782609314,-8.152173913043526,-9.510869565217376,-11.82065217391309q-5.842391304347814,-2.7173913043477853,-11.413043478260875,-1.086956521739097q-6.114130434782595,2.3097826086956843,-8.288043478260875,7.608695652173992q-2.445652173913089,5.298913043478251,0.13586956521734805,10.05434782608674q3.3967391304347814,5.027173913043754,9.103260869565219,2.989130434782794q3.39673913043481,-2.1739130434782226,3.9402173913043725,-6.249999999999972" style="fill:none;stroke:black;stroke-width:2px;stroke-linecap:round;stroke-linejoin:round;" id="e22_path"/><path d="M402.63585430642826,315.2173913043478q1.7053025658242404e-13,20.108695652173992,6.521739130434867,29.891304347826065q5.8423913043477,9.646739130434753,16.711956521739125,14.673913043478251q11.413043478260875,4.619565217391312,21.195652173913004,4.076086956521749q9.78260869565213,-0.2717391304346961,17.66304347826093,-5.706521739130437q7.608695652173878,-5.1630434782608745,11.005434782608631,-11.684782608695627q4.211956521739239,-7.880434782608688,3.668478260869506,-17.66304347826093q-1.3586956521738216,-10.326086956521635,-8.423913043478024,-16.032608695652186q-5.978260869565304,-4.619565217391198,-12.500000000000057,-5.027173913043441q-6.79347826086962,-0.13586956521737648,-11.956521739130494,2.853260869565247q-5.434782608695684,3.5326086956521863,-6.793478260869676,8.96739130434787q-1.3586956521738784,4.076086956521749,-0.1358695652172628,9.374999999999943q1.4945652173913686,4.2119565217391255,5.1630434782608745,6.79347826086962q3.9402173913043157,2.173913043478251,8.016304347826008,1.494565217391255q2.5815217391306646,-0.40760869565218627,4.211956521739296,-2.8532608695651334q1.6304347826085177,-2.853260869565247,0.13586956521731963,-5.842391304347871" style="fill:none;stroke:black;stroke-width:2px;stroke-linecap:round;stroke-linejoin:round;" id="e23_path"/><path d="M228.99453834865403,164.4021739130435q-11.820652173913032,-11.684782608695684,-13.451086956521749,-22.010869565217405q-1.0869565217391255,-7.065217391304401,0.815217391304401,-13.858695652173964q1.6304347826086598,-6.249999999999957,6.793478260869563,-11.684782608695599q5.230978260869591,-5.298913043478294,11.684782608695599,-7.880434782608717q8.288043478260846,-2.717391304347842,17.119565217391397,-0.9510869565217632q7.88043478260866,1.4945652173912833,14.47010869565193,6.72554347826086q7.269021739130608,6.18206521739134,8.899456521739353,15.421195652173964q1.7663043478260647,9.578804347826093,-3.0570652173913686,17.39130434782598q-6.046195652173822,7.88043478260883,-14.74184782608694,8.89945652173924q-10.937500000000028,1.4945652173913402,-17.255434782608745,-6.18206521739134q-3.600543478260761,-5.1630434782608745,-1.970108695652101,-12.499999999999943q1.9701086956521863,-5.163043478260903,7.9483695652173765,-7.812500000000028q4.415760869565304,-1.3586956521739069,8.22010869565213,0.747282608695599q3.260869565217405,2.1059782608696196,3.3967391304347814,5.706521739130466q-0.20380434782595103,2.7853260869565304,-1.7663043478260647,4.891304347826093" style="fill:none;stroke:black;stroke-width:2px;stroke-linecap:round;stroke-linejoin:round;" id="e24_path"/></svg>