    <svg xmlns="http://www.w3.org/2000/svg" xmlns:xlink="http://www.w3.org/1999/xlink" width="467px" height="474px" viewBox="282.365 128.319 271.699 276.038" preserveAspectRatio="xMidYMid meet"  >
      <g  fill="none" fill-rule="evenodd" stroke="currentColor" stroke-width="1" class="lines">
        <circle cx="420" cy="270" r="31.0161248385"/>
        <path d="M400,294q-40,46,20,106"/>
        <path d="M439,294q41,46,-19,106"/>
        <path d="M401,130q-40,46,20,106" transform="matrix(-0.999951 -0.00987362 0.00987362 -0.999951 838.875 380.146)"/>
        <path d="M440,130q41,46,-19,106" transform="matrix(-0.999951 -0.00987362 0.00987362 -0.999951 838.875 380.146)"/>
        <path d="M401,130q-40,46,20,106" transform="matrix(-0.719047 0.694961 -0.694961 -0.719047 795.722 54.2286)"/>
        <path d="M440,130q41,46,-19,106" transform="matrix(-0.719047 0.694961 -0.694961 -0.719047 795.722 54.2286)"/>
        <path d="M439,294q41,46,-19,106" transform="matrix(0.71215 -0.702027 0.702027 0.71215 -68.5558 372.421)"/>
        <path d="M400,294q-40,46,20,106" transform="matrix(0.71215 -0.702027 0.702027 0.71215 -68.5558 372.421)"/>
        <path d="M400,294q-40,46,20,106" transform="matrix(0.725127 0.688615 -0.688615 0.725127 301.194 -214.984)"/>
        <path d="M440,130q41,46,-19,106" transform="matrix(-0.718293 -0.695741 0.695741 -0.718293 647.711 638.332)"/>
        <path d="M401,130q-40,46,20,106" transform="matrix(-0.718293 -0.695741 0.695741 -0.718293 647.711 638.332)"/>
        <path d="M439,294q41,46,-19,106" transform="matrix(0.725127 0.688615 -0.688615 0.725127 301.194 -214.984)"/>
        <path d="M400,294q-40,46,20,106" transform="matrix(-0.00171615 0.999999 -0.999999 -0.00171615 690.425 -149.593)"/>
        <path d="M440,130q41,46,-19,106" transform="matrix(0.0115897 -0.999933 0.999933 0.0115897 308.84 688.629)"/>
        <path d="M401,130q-40,46,20,106" transform="matrix(0.0115897 -0.999933 0.999933 0.0115897 308.84 688.629)"/>
        <path d="M439,294q41,46,-19,106" transform="matrix(-0.00171615 0.999999 -0.999999 -0.00171615 690.425 -149.593)"/>
      </g>
    </svg>